<?xml version="1.0" encoding="UTF-8"?><svg id="Layer_1" xmlns="http://www.w3.org/2000/svg" viewBox="0 0 288 288"><defs><style>.cls-1{fill:#00334a;}.cls-2{fill:#fff;}</style></defs><circle class="cls-1" cx="144" cy="144" r="136.8"/><path class="cls-2" d="m218.67,73.26v-1.19h-59v1.19c15.67,0,16.59,9.89,16.59,24.51v7.21h-64.52v-7.21c0-14.62.92-24.51,16.59-24.51v-1.19h-59v1.19c15.67,0,16.59,9.89,16.59,24.51v92.47c0,14.62-.92,24.5-16.59,24.5v1.19h59v-1.19c-15.67,0-16.59-9.88-16.59-24.5v-46.43h64.52v46.43c0,14.62-.92,24.5-16.59,24.5v1.19h59v-1.19c-15.67,0-16.59-9.88-16.59-24.5v-92.47c0-14.62.92-24.51,16.59-24.51Zm-42.41,40.29v21.69h-64.52v-21.69h64.52Z"/></svg>