<?xml version="1.0" encoding="UTF-8"?><svg id="Layer_1" xmlns="http://www.w3.org/2000/svg" viewBox="0 0 720 136.7"><defs><style>.cls-1{fill:#00334a;}</style></defs><path class="cls-1" d="m195.72,39.03c-28.89,0-49.75,18.92-49.75,47.47s20.06,46.79,49.35,46.79,49.75-18.92,49.75-47.48-20.06-46.78-49.35-46.78Zm0,91.85c-18.46,0-27.29-20.3-27.29-44.72s8.43-44.72,26.89-44.72,27.28,20.3,27.28,44.72-8.42,44.72-26.88,44.72Z"/><path class="cls-1" d="m395.11,113.33v-47.47c0-17.2-9.63-26.83-25.68-26.83-13.63,0-26.68,8.08-35.5,17.54-3.01-11.35-11.83-17.54-24.67-17.54s-25.68,7.56-34.51,16.33v-16h-.81l-30.29,7.57v1.03c6.82,2.07,10.24,5.16,10.24,16.17v49.19c0,11.01-.6,16.86-8.82,16.86v1.03h38.51v-1.03c-8.22,0-8.82-5.85-8.82-16.86v-56.25c6.01-4.47,14.64-7.05,21.86-7.05,14.24,0,17.45,8.94,17.45,20.98v42.31c0,11.01-.6,16.86-8.82,16.86v1.03h38.51v-1.03c-8.22,0-8.82-5.85-8.82-16.86v-47.47c0-2.93-.2-5.68-.8-8.09,6.01-4.82,15.25-7.74,22.66-7.74,14.24,0,17.45,8.94,17.45,20.98v42.31c0,11.01-.6,16.86-8.82,16.86v1.03h38.51v-1.03c-8.22,0-8.82-5.85-8.82-16.86Z"/><path class="cls-1" d="m422.58,25.95c7.23,0,13.04-4.99,13.04-11.36s-5.81-11.18-13.04-11.18-13.25,4.99-13.25,11.18,5.82,11.36,13.25,11.36Z"/><path class="cls-1" d="m434.81,113.33V39.37h-.8l-30.29,7.57v1.03c6.82,2.07,10.23,5.16,10.23,16.17v49.19c0,11.01-.59,16.86-8.82,16.86v1.03h38.52v-1.03c-8.23,0-8.83-5.84-8.83-16.86Z"/><path class="cls-1" d="m532.7,108.52V39.37h-.8l-30.69,2.41v1.03c6.82,2.06,10.63,6.19,10.63,17.19v54.87c-7.62,4.65-16.45,7.4-23.87,7.4-14.24,0-17.45-8.94-17.45-20.99v-61.92h-.8l-30.69,2.41v1.03c6.82,2.06,10.63,6.19,10.63,17.19v46.44c0,17.2,9.63,26.83,25.68,26.83,13.24,0,26.08-7.74,36.5-17.03l4.01,17.03h.8l26.28-5.84v-1.03c-6.82-2.07-10.23-6.88-10.23-17.89Z"/><path class="cls-1" d="m693.18,113.33v-47.47c0-17.2-9.63-26.83-25.67-26.83-13.64,0-26.69,8.08-35.51,17.54-3.01-11.35-11.83-17.54-24.67-17.54s-25.68,7.56-34.51,16.33v-16h-.81l-30.29,7.57v1.03c6.82,2.07,10.24,5.16,10.24,16.17v49.19c0,11.01-.6,16.86-8.82,16.86v1.03h38.51v-1.03c-8.22,0-8.82-5.85-8.82-16.86v-56.25c6.01-4.47,14.64-7.05,21.86-7.05,14.24,0,17.45,8.94,17.45,20.98v42.31c0,11.01-.6,16.86-8.82,16.86v1.03h38.51v-1.03c-8.22,0-8.82-5.85-8.82-16.86v-47.47c0-2.93-.2-5.68-.8-8.09,6.01-4.82,15.25-7.74,22.66-7.74,14.25,0,17.45,8.94,17.45,20.98v42.31c0,11.01-.6,16.86-8.82,16.86v1.03h38.51v-1.03c-8.22,0-8.82-5.85-8.82-16.86Z"/><path class="cls-1" d="m148,7.03v-1.03h-51.36v1.03c13.64,0,14.44,8.6,14.44,21.33v6.28h-56.17v-6.28c0-12.73.8-21.33,14.44-21.33v-1.03H18v1.03c13.64,0,14.44,8.6,14.44,21.33v80.5c0,12.73-.8,21.33-14.44,21.33v1.03h51.36v-1.03c-13.64,0-14.44-8.6-14.44-21.33v-40.42h56.17v40.42c0,12.73-.8,21.33-14.44,21.33v1.03h51.36v-1.03c-13.64,0-14.44-8.6-14.44-21.33V28.36c0-12.73.8-21.33,14.44-21.33Zm-36.92,35.07v18.88h-56.17v-18.88h56.17Z"/></svg>